<mxfile host="app.diagrams.net" modified="2020-09-28T17:51:15.906Z" agent="5.0 (Windows NT 10.0; Win64; x64) AppleWebKit/537.36 (KHTML, like Gecko) Chrome/85.0.4183.121 Safari/537.36" etag="d1KNcTwtk5C8e8_zsGgr" version="13.7.5" type="github">
  <diagram id="Ec657FDz9ZOURxy_0m9r" name="Page-1">
    <mxGraphModel dx="1038" dy="1680" grid="1" gridSize="10" guides="1" tooltips="1" connect="1" arrows="1" fold="1" page="1" pageScale="1" pageWidth="850" pageHeight="1100" math="0" shadow="0">
      <root>
        <mxCell id="0" />
        <mxCell id="1" parent="0" />
        <mxCell id="EjqTcaJxsG-irUjSBv3h-9" value="" style="edgeStyle=orthogonalEdgeStyle;rounded=0;orthogonalLoop=1;jettySize=auto;html=1;" edge="1" parent="1" source="EjqTcaJxsG-irUjSBv3h-1" target="EjqTcaJxsG-irUjSBv3h-4">
          <mxGeometry relative="1" as="geometry" />
        </mxCell>
        <mxCell id="EjqTcaJxsG-irUjSBv3h-22" value="" style="edgeStyle=orthogonalEdgeStyle;rounded=0;orthogonalLoop=1;jettySize=auto;html=1;" edge="1" parent="1" source="EjqTcaJxsG-irUjSBv3h-1" target="EjqTcaJxsG-irUjSBv3h-21">
          <mxGeometry relative="1" as="geometry" />
        </mxCell>
        <mxCell id="EjqTcaJxsG-irUjSBv3h-1" value="" style="shape=parallelogram;perimeter=parallelogramPerimeter;whiteSpace=wrap;html=1;fixedSize=1;fontFamily=Helvetica;fontSize=12;fontColor=#000000;align=center;strokeColor=#000000;fillColor=#ffffff;" vertex="1" parent="1">
          <mxGeometry x="70" y="140" width="120" height="80" as="geometry" />
        </mxCell>
        <mxCell id="EjqTcaJxsG-irUjSBv3h-10" value="" style="edgeStyle=orthogonalEdgeStyle;rounded=0;orthogonalLoop=1;jettySize=auto;html=1;" edge="1" parent="1" source="EjqTcaJxsG-irUjSBv3h-4" target="EjqTcaJxsG-irUjSBv3h-5">
          <mxGeometry relative="1" as="geometry" />
        </mxCell>
        <mxCell id="EjqTcaJxsG-irUjSBv3h-4" value="" style="shape=parallelogram;perimeter=parallelogramPerimeter;whiteSpace=wrap;html=1;fixedSize=1;" vertex="1" parent="1">
          <mxGeometry x="70" y="260" width="120" height="60" as="geometry" />
        </mxCell>
        <mxCell id="EjqTcaJxsG-irUjSBv3h-11" value="" style="edgeStyle=orthogonalEdgeStyle;rounded=0;orthogonalLoop=1;jettySize=auto;html=1;" edge="1" parent="1" source="EjqTcaJxsG-irUjSBv3h-5" target="EjqTcaJxsG-irUjSBv3h-6">
          <mxGeometry relative="1" as="geometry" />
        </mxCell>
        <mxCell id="EjqTcaJxsG-irUjSBv3h-5" value="" style="shape=parallelogram;perimeter=parallelogramPerimeter;whiteSpace=wrap;html=1;fixedSize=1;" vertex="1" parent="1">
          <mxGeometry x="70" y="370" width="120" height="60" as="geometry" />
        </mxCell>
        <mxCell id="EjqTcaJxsG-irUjSBv3h-24" value="" style="edgeStyle=orthogonalEdgeStyle;rounded=0;orthogonalLoop=1;jettySize=auto;html=1;" edge="1" parent="1" source="EjqTcaJxsG-irUjSBv3h-6" target="EjqTcaJxsG-irUjSBv3h-23">
          <mxGeometry relative="1" as="geometry" />
        </mxCell>
        <mxCell id="EjqTcaJxsG-irUjSBv3h-6" value="" style="shape=parallelogram;perimeter=parallelogramPerimeter;whiteSpace=wrap;html=1;fixedSize=1;" vertex="1" parent="1">
          <mxGeometry x="70" y="470" width="120" height="60" as="geometry" />
        </mxCell>
        <mxCell id="EjqTcaJxsG-irUjSBv3h-13" value="Enter starting balance in dollars" style="text;html=1;strokeColor=none;fillColor=none;align=center;verticalAlign=middle;whiteSpace=wrap;rounded=0;" vertex="1" parent="1">
          <mxGeometry x="110" y="170" width="40" height="20" as="geometry" />
        </mxCell>
        <mxCell id="EjqTcaJxsG-irUjSBv3h-14" value="Enter yearly contribution in dollars" style="text;html=1;strokeColor=none;fillColor=none;align=center;verticalAlign=middle;whiteSpace=wrap;rounded=0;" vertex="1" parent="1">
          <mxGeometry x="90" y="280" width="80" height="20" as="geometry" />
        </mxCell>
        <mxCell id="EjqTcaJxsG-irUjSBv3h-15" value="Enter average return on investment as %" style="text;html=1;strokeColor=none;fillColor=none;align=center;verticalAlign=middle;whiteSpace=wrap;rounded=0;" vertex="1" parent="1">
          <mxGeometry x="90" y="390" width="80" height="20" as="geometry" />
        </mxCell>
        <mxCell id="EjqTcaJxsG-irUjSBv3h-16" value="Enter number of years for the report" style="text;html=1;strokeColor=none;fillColor=none;align=center;verticalAlign=middle;whiteSpace=wrap;rounded=0;" vertex="1" parent="1">
          <mxGeometry x="90" y="490" width="80" height="20" as="geometry" />
        </mxCell>
        <mxCell id="EjqTcaJxsG-irUjSBv3h-21" value="Start" style="ellipse;whiteSpace=wrap;html=1;" vertex="1" parent="1">
          <mxGeometry x="70" y="-20" width="120" height="80" as="geometry" />
        </mxCell>
        <mxCell id="EjqTcaJxsG-irUjSBv3h-26" value="" style="edgeStyle=orthogonalEdgeStyle;rounded=0;orthogonalLoop=1;jettySize=auto;html=1;" edge="1" parent="1" source="EjqTcaJxsG-irUjSBv3h-23" target="EjqTcaJxsG-irUjSBv3h-25">
          <mxGeometry relative="1" as="geometry" />
        </mxCell>
        <mxCell id="EjqTcaJxsG-irUjSBv3h-23" value="print starting balance" style="shape=parallelogram;perimeter=parallelogramPerimeter;whiteSpace=wrap;html=1;fixedSize=1;" vertex="1" parent="1">
          <mxGeometry x="70" y="570" width="120" height="60" as="geometry" />
        </mxCell>
        <mxCell id="EjqTcaJxsG-irUjSBv3h-28" value="" style="edgeStyle=orthogonalEdgeStyle;rounded=0;orthogonalLoop=1;jettySize=auto;html=1;" edge="1" parent="1" source="EjqTcaJxsG-irUjSBv3h-25" target="EjqTcaJxsG-irUjSBv3h-27">
          <mxGeometry relative="1" as="geometry" />
        </mxCell>
        <mxCell id="EjqTcaJxsG-irUjSBv3h-25" value="calculate next year balance" style="rounded=0;whiteSpace=wrap;html=1;fontFamily=Helvetica;fontSize=12;fontColor=#000000;align=center;strokeColor=#000000;fillColor=#ffffff;" vertex="1" parent="1">
          <mxGeometry x="70" y="670" width="120" height="60" as="geometry" />
        </mxCell>
        <mxCell id="EjqTcaJxsG-irUjSBv3h-29" value="no" style="edgeStyle=orthogonalEdgeStyle;rounded=0;orthogonalLoop=1;jettySize=auto;html=1;exitX=1;exitY=0.5;exitDx=0;exitDy=0;entryX=1;entryY=0.5;entryDx=0;entryDy=0;" edge="1" parent="1" source="EjqTcaJxsG-irUjSBv3h-30" target="EjqTcaJxsG-irUjSBv3h-25">
          <mxGeometry relative="1" as="geometry">
            <Array as="points">
              <mxPoint x="230" y="920" />
              <mxPoint x="230" y="700" />
            </Array>
          </mxGeometry>
        </mxCell>
        <mxCell id="EjqTcaJxsG-irUjSBv3h-31" value="" style="edgeStyle=orthogonalEdgeStyle;rounded=0;orthogonalLoop=1;jettySize=auto;html=1;" edge="1" parent="1" source="EjqTcaJxsG-irUjSBv3h-27" target="EjqTcaJxsG-irUjSBv3h-30">
          <mxGeometry relative="1" as="geometry" />
        </mxCell>
        <mxCell id="EjqTcaJxsG-irUjSBv3h-27" value="print next year balance" style="shape=parallelogram;perimeter=parallelogramPerimeter;whiteSpace=wrap;html=1;fixedSize=1;rounded=0;" vertex="1" parent="1">
          <mxGeometry x="70" y="770" width="120" height="60" as="geometry" />
        </mxCell>
        <mxCell id="EjqTcaJxsG-irUjSBv3h-33" value="yes" style="edgeStyle=orthogonalEdgeStyle;rounded=0;orthogonalLoop=1;jettySize=auto;html=1;" edge="1" parent="1" source="EjqTcaJxsG-irUjSBv3h-30" target="EjqTcaJxsG-irUjSBv3h-32">
          <mxGeometry relative="1" as="geometry" />
        </mxCell>
        <mxCell id="EjqTcaJxsG-irUjSBv3h-30" value="is current year equal to numberof years" style="rhombus;whiteSpace=wrap;html=1;rounded=0;" vertex="1" parent="1">
          <mxGeometry x="90" y="880" width="80" height="80" as="geometry" />
        </mxCell>
        <mxCell id="EjqTcaJxsG-irUjSBv3h-32" value="" style="ellipse;whiteSpace=wrap;html=1;rounded=0;" vertex="1" parent="1">
          <mxGeometry x="70" y="1040" width="120" height="80" as="geometry" />
        </mxCell>
      </root>
    </mxGraphModel>
  </diagram>
</mxfile>
